<svg width="144" height="52" viewBox="0 0 144 52" fill="none" xmlns="http://www.w3.org/2000/svg">
<g clip-path="url(#clip0_41_255)">
<path d="M25.0063 25.6598C25.0063 28.3611 24.4943 30.6593 23.4702 32.5542C22.4542 34.4492 21.0672 35.8966 19.3094 36.8965C17.5595 37.8883 15.592 38.3842 13.4068 38.3842C11.2054 38.3842 9.22983 37.8843 7.48003 36.8844C5.73022 35.8845 4.34731 34.4371 3.3313 32.5421C2.31528 30.6472 1.80727 28.3531 1.80727 25.6598C1.80727 22.9585 2.31528 20.6604 3.3313 18.7654C4.34731 16.8705 5.73022 15.4271 7.48003 14.4353C9.22983 13.4354 11.2054 12.9354 13.4068 12.9354C15.592 12.9354 17.5595 13.4354 19.3094 14.4353C21.0672 15.4271 22.4542 16.8705 23.4702 18.7654C24.4943 20.6604 25.0063 22.9585 25.0063 25.6598ZM19.6964 25.6598C19.6964 23.91 19.4343 22.4344 18.9102 21.2329C18.3941 20.0314 17.6644 19.1202 16.7209 18.4993C15.7775 17.8784 14.6728 17.568 13.4068 17.568C12.1408 17.568 11.0361 17.8784 10.0926 18.4993C9.14919 19.1202 8.41541 20.0314 7.89127 21.2329C7.3752 22.4344 7.11716 23.91 7.11716 25.6598C7.11716 27.4096 7.3752 28.8853 7.89127 30.0867C8.41541 31.2882 9.14919 32.1994 10.0926 32.8203C11.0361 33.4412 12.1408 33.7517 13.4068 33.7517C14.6728 33.7517 15.7775 33.4412 16.7209 32.8203C17.6644 32.1994 18.3941 31.2882 18.9102 30.0867C19.4343 28.8853 19.6964 27.4096 19.6964 25.6598ZM40.7031 30.1351V19.467H45.8558V38.0455H40.9088V34.6709H40.7152C40.2959 35.7595 39.5984 36.6344 38.6227 37.2956C37.6551 37.9568 36.4738 38.2874 35.0788 38.2874C33.837 38.2874 32.7443 38.0052 31.8009 37.4408C30.8575 36.8763 30.1196 36.074 29.5874 35.0338C29.0633 33.9936 28.7972 32.7477 28.7891 31.2963V19.467H33.9418V30.377C33.9499 31.4737 34.2442 32.3405 34.8248 32.9775C35.4053 33.6146 36.1835 33.9331 37.1592 33.9331C37.7801 33.9331 38.3607 33.792 38.9009 33.5097C39.4412 33.2195 39.8766 32.7921 40.2072 32.2276C40.5459 31.6632 40.7112 30.9657 40.7031 30.1351ZM59.8593 19.467V23.3375H48.671V19.467H59.8593ZM51.211 15.0158H56.3637V32.3365C56.3637 32.8122 56.4363 33.1832 56.5814 33.4493C56.7265 33.7073 56.9281 33.8887 57.1862 33.9936C57.4523 34.0984 57.7587 34.1508 58.1054 34.1508C58.3473 34.1508 58.5892 34.1306 58.8312 34.0903C59.0731 34.0419 59.2585 34.0057 59.3875 33.9815L60.1979 37.8157C59.9399 37.8964 59.577 37.9891 59.1093 38.0939C58.6417 38.2068 58.0732 38.2753 57.4039 38.2995C56.1621 38.3479 55.0735 38.1826 54.1381 37.8036C53.2108 37.4246 52.4891 36.836 51.973 36.0377C51.457 35.2394 51.203 34.2314 51.211 33.0138V15.0158ZM73.2066 19.467V23.3375H61.7401V19.467H73.2066ZM64.3648 38.0455V18.1244C64.3648 16.7777 64.6269 15.6609 65.151 14.7739C65.6832 13.8869 66.4089 13.2217 67.3282 12.7782C68.2474 12.3347 69.2917 12.1129 70.4609 12.1129C71.2511 12.1129 71.9728 12.1734 72.626 12.2944C73.2872 12.4153 73.7791 12.5242 74.1016 12.621L73.1824 16.4915C72.9808 16.427 72.7308 16.3665 72.4325 16.3101C72.1422 16.2536 71.8438 16.2254 71.5374 16.2254C70.7794 16.2254 70.2512 16.4028 69.9529 16.7576C69.6545 17.1043 69.5054 17.5922 69.5054 18.2211V38.0455H64.3648ZM76.3544 38.0455V19.467H81.507V38.0455H76.3544ZM78.9428 17.0721C78.1768 17.0721 77.5196 16.8181 76.9713 16.3101C76.431 15.794 76.1609 15.1771 76.1609 14.4595C76.1609 13.7499 76.431 13.1411 76.9713 12.633C77.5196 12.117 78.1768 11.8589 78.9428 11.8589C79.7089 11.8589 80.362 12.117 80.9023 12.633C81.4506 13.1411 81.7248 13.7499 81.7248 14.4595C81.7248 15.1771 81.4506 15.794 80.9023 16.3101C80.362 16.8181 79.7089 17.0721 78.9428 17.0721ZM95.5166 19.467V23.3375H84.3283V19.467H95.5166ZM86.8683 15.0158H92.021V32.3365C92.021 32.8122 92.0936 33.1832 92.2387 33.4493C92.3839 33.7073 92.5854 33.8887 92.8435 33.9936C93.1096 34.0984 93.416 34.1508 93.7627 34.1508C94.0046 34.1508 94.2465 34.1306 94.4885 34.0903C94.7304 34.0419 94.9158 34.0057 95.0448 33.9815L95.8552 37.8157C95.5972 37.8964 95.2343 37.9891 94.7667 38.0939C94.299 38.2068 93.7305 38.2753 93.0612 38.2995C91.8194 38.3479 90.7308 38.1826 89.7954 37.8036C88.8681 37.4246 88.1464 36.836 87.6304 36.0377C87.1143 35.2394 86.8603 34.2314 86.8683 33.0138V15.0158Z" fill="white"/>
<g clip-path="url(#clip1_41_255)">
<rect x="99.412" y="8.54553" width="44.4821" height="34" rx="7.74107" fill="white"/>
<path d="M112.408 35.5455H107.816L114.813 15.278H120.335L127.322 35.5455H122.73L117.653 19.9094H117.495L112.408 35.5455ZM112.121 27.579H122.967V30.924H112.121V27.579ZM134.046 15.278V35.5455H129.761V15.278H134.046Z" fill="#03346E"/>
</g>
</g>
<defs>
<clipPath id="clip0_41_255">
<rect width="143.984" height="51.0911" fill="white"/>
</clipPath>
<clipPath id="clip1_41_255">
<rect x="99.412" y="8.54553" width="44.4821" height="34" rx="7.74107" fill="white"/>
</clipPath>
</defs>
</svg>
