<svg width="122" height="122" viewBox="0 0 122 122" fill="none" xmlns="http://www.w3.org/2000/svg">
<path d="M25 103H7C3.4 103 1 100.6 1 97V25C1 18.4 5.8 11.2 12.4 9.4L37 1C37 7.3652 39.5286 13.4697 44.0294 17.9706C48.5303 22.4714 54.6348 25 61 25C67.3652 25 73.4697 22.4714 77.9706 17.9706C82.4714 13.4697 85 7.3652 85 1L109.6 9.4C116.2 11.2 121 18.4 121 25V97C121 100.6 118.6 103 115 103H97" fill="#6EACDA"/>
<path d="M25 103H7C3.4 103 1 100.6 1 97V25C1 18.4 5.8 11.2 12.4 9.4L37 1C37 7.3652 39.5286 13.4697 44.0294 17.9706C48.5303 22.4714 54.6348 25 61 25C67.3652 25 73.4697 22.4714 77.9706 17.9706C82.4714 13.4697 85 7.3652 85 1L109.6 9.4C116.2 11.2 121 18.4 121 25V97C121 100.6 118.6 103 115 103H97" stroke="#6C91C8" stroke-opacity="0.8" stroke-width="2" stroke-linecap="round" stroke-linejoin="round"/>
<path d="M97 37V115C97 118.6 94.6 121 91 121H31C27.4 121 25 118.6 25 115V37" fill="#6EACDA"/>
<path d="M97 37V115C97 118.6 94.6 121 91 121H31C27.4 121 25 118.6 25 115V37" stroke="#6C91C8" stroke-opacity="0.8" stroke-width="2" stroke-linecap="round" stroke-linejoin="round"/>
</svg>
