<svg width="92" height="102" viewBox="0 0 92 102" fill="none" xmlns="http://www.w3.org/2000/svg">
<path d="M71.015 3.78L58.51 1C56.01 6 51 8.5 46 8.5C41 8.5 35.995 6 33.49 1L20.985 3.78M71.015 3.78L73.17 4.255C78.21 5.375 82.74 8.365 84.57 13.19C87.875 21.94 90.595 35.92 90.98 55.995C91.03 58.33 91.05 59.5 90.315 60.25C89.58 61 88.395 61 86.025 61H75.83M71.015 3.78C71.015 15.33 72.095 35.355 75.83 61M20.985 3.78L18.825 4.255C13.79 5.375 9.26002 8.365 7.43502 13.19C4.12502 21.94 1.41002 35.92 1.02002 55.995C0.97002 58.33 0.950021 59.5 1.68502 60.25C2.42002 61 3.60502 61 5.97502 61H16.17M20.985 3.78C20.985 15.33 19.905 35.355 16.17 61M75.83 61C76.55 65.94 77.97 74.09 79.14 80.65C80.025 85.6 80.47 88.075 78.79 91.155C77.115 94.24 75.42 94.95 72.03 96.37C66.385 98.74 57.89 101 46 101C34.115 101 25.615 98.74 19.97 96.37C16.58 94.95 14.885 94.24 13.21 91.155C11.53 88.075 11.975 85.6 12.86 80.65C14.03 74.09 15.45 65.94 16.17 61" stroke="#629584" stroke-width="1.5" stroke-linecap="round" stroke-linejoin="round"/>
<path d="M56.155 6C55.42 23.39 56.595 59.74 76 66M35.85 6C36.58 23.39 35.4 59.74 16 66" stroke="#629584" stroke-width="1.5" stroke-linecap="round" stroke-linejoin="round"/>
</svg>
