<svg width="120" height="120" viewBox="0 0 120 120" fill="none" xmlns="http://www.w3.org/2000/svg">
<path d="M77.298 0.0482724L77.868 0.00160656L78.54 0.0282725L79.218 0.141604L79.896 0.341603L115.896 13.6748C116.978 14.0756 117.935 14.8109 118.654 15.7945C119.374 16.7781 119.826 17.9691 119.958 19.228L120 20.0013V53.3342C120 54.9671 119.46 56.5431 118.484 57.7633C117.507 58.9835 116.162 59.7631 114.702 59.9541L114 60.0008H102V106.667C102.001 110.031 100.858 113.271 98.799 115.737C96.7405 118.204 93.9189 119.714 90.9 119.967L90 120H30C26.9725 120.001 24.0566 118.731 21.8367 116.443C19.6168 114.156 18.2571 111.021 18.03 107.667L18 106.667V60.0008H6C4.5304 60.0006 3.11198 59.4011 2.01377 58.3161C0.915559 57.231 0.213943 55.7359 0.0420002 54.1142L3.42431e-07 53.3342V20.0013C-0.000385042 18.7337 0.324532 17.4922 0.936651 16.4224C1.54877 15.3526 2.42271 14.4989 3.456 13.9614L4.104 13.6748L40.104 0.341603C41.006 0.00780174 41.9665 -0.0830668 42.9063 0.0764881C43.8461 0.236043 44.7383 0.641452 45.5094 1.25931C46.2806 1.87716 46.9085 2.68977 47.3415 3.63018C47.7745 4.57058 48.0002 5.61185 48 6.66818C47.9861 10.128 49.1831 13.4584 51.3383 15.9557C53.4934 18.4531 56.4379 19.9218 59.5496 20.0516C62.6614 20.1814 65.6967 18.9622 68.0143 16.6514C70.3319 14.3407 71.7504 11.1194 71.97 7.66817L72.024 6.06819L72.126 5.31487L72.348 4.42155L72.612 3.73489L72.912 3.12156L73.32 2.50157L73.734 1.96825C74.066 1.6127 74.416 1.30159 74.784 1.03493L75.36 0.681597L75.978 0.388269L76.626 0.174938L77.298 0.0482724Z" fill="#6EACDA"/>
</svg>
